# xmcd CD database file
#
# Track frame offsets:
#	150
#	19263
#	39638
#	58688
#	78438
#	98550
#	119250
#	143150
#	160750
#	183950
#	203575
#	223363
#	244163
#	260075
#
# Disc length: 3765 seconds
#
# Revision: 6
# Processed by: cddbd v1.5.1PL0 Copyright (c) Steve Scherf et al.
# Submitted via: CDex 1.51
#
DISCID=c50eb30e
DTITLE=????? - SPECIAL BEST ?Sing?
DYEAR=1900
DGENRE=Misc
TTITLE0=?????
TTITLE1=???&???
TTITLE2=????
TTITLE3=????Lovin? you
TTITLE4=???
TTITLE5=So in Love
TTITLE6=?????
TTITLE7=????????
TTITLE8=?????
TTITLE9=?????
TTITLE10=???????
TTITLE11=for you?
TTITLE12=????
TTITLE13=????
EXTD=
EXTT0=
EXTT1=
EXTT2=
EXTT3=
EXTT4=
EXTT5=
EXTT6=
EXTT7=
EXTT8=
EXTT9=
EXTT10=
EXTT11=
EXTT12=
EXTT13=
PLAYORDER=
